Coordinates
version=1
nRows=8
nColumns=36
inDegrees=yes

Units are S.I. units (second, meters, Newtons, ...)
If the header above contains a line with 'inDegrees', this indicates whether rotational values are in degrees (yes) or radians (no).

endheader
time	pelvis_tilt	pelvis_list	pelvis_rotation	pelvis_tx	pelvis_ty	pelvis_tz	hip_flexion_r	hip_adduction_r	hip_rotation_r	knee_angle_r	knee_angle_r_beta	ankle_angle_r	subtalar_angle_r	mtp_angle_r	hip_flexion_l	hip_adduction_l	hip_rotation_l	knee_angle_l	knee_angle_l_beta	ankle_angle_l	subtalar_angle_l	mtp_angle_l	lumbar_extension	lumbar_bending	lumbar_rotation	arm_flex_r	arm_add_r	arm_rot_r	elbow_flex_r	pro_sup_r	arm_flex_l	arm_add_l	arm_rot_l	elbow_flex_l	pro_sup_l
      3.30000000	     11.50745420	      9.49663121	      2.09383693	      0.50918911	      0.94616590	     -0.10979733	    -27.19785513	    -17.63239485	    -11.97185995	      3.61803616	      0.06314664	     14.63681629	     -9.34697139	     -7.49999987	    -27.89944111	      5.20973975	     -1.64297443	      0.09891085	      0.00172632	     11.38667005	     10.07699921	     -7.49999987	    -37.92846322	      4.22135167	    -10.13400159	     60.28220213	    -21.96718842	     75.76316767	    125.63626895	    102.03524474	     41.15834004	     -3.65472144	     37.67533896	     97.74957702	     98.64097128
      3.31666670	     11.42039664	      9.92793874	      2.29957752	      0.50927073	      0.94528183	     -0.11078111	    -27.41317486	    -17.91715538	    -11.99811870	      3.47261111	      0.06060850	     14.83473762	     -9.97166378	     -7.49999987	    -27.79788844	      5.58997328	     -1.40275790	      0.09709519	      0.00169463	     11.57511433	      9.91152610	     -7.49999987	    -37.81502392	      3.90067364	    -10.75936417	     59.99729848	    -21.49721494	     77.90155906	    129.36776077	    101.41962286	     39.01780572	     -4.53119736	     36.75508960	     99.67271722	     97.36076720
      3.33333330	     11.37208356	     10.17085819	      2.37242846	      0.50492685	      0.94824244	     -0.10335542	    -27.41689724	    -17.99447608	    -11.58961995	      3.41304479	      0.05956887	     14.88269922	    -10.89163306	     -7.49999987	    -27.65100502	      5.78003393	     -1.59902427	      0.09622789	      0.00167949	     11.92761320	     10.19785816	     -7.49999987	    -37.83898268	      3.41824937	    -11.18282288	     59.35554215	    -20.67141960	     79.66832075	    131.08575346	    104.17279223	     37.81398958	     -5.60355630	     37.09427990	    102.29506032	     99.82016549
      3.35000000	     11.31614604	     10.42473178	      2.37323881	      0.49235525	      0.95145790	     -0.10973374	    -26.85820319	    -18.30756259	    -11.32782987	      4.09557339	      0.07148124	     15.20855424	    -11.47036946	     -7.49999987	    -27.36208751	      6.09607041	     -1.60366055	      0.09686063	      0.00169054	     12.12941896	     10.07665560	     -7.49999987	    -37.89497724	      3.29721565	    -12.13756177	     59.25883831	    -19.97160705	     80.88637285	    131.17482946	    104.35790606	     37.78872337	     -5.63203790	     38.41229596	    104.52365298	    100.09684139
      3.36666670	     11.30327935	     10.59683144	      2.13034540	      0.47266835	      0.95487059	     -0.11660503	    -25.53800794	    -18.81821124	    -10.82609714	      5.63009895	      0.09826376	     15.63247687	    -12.21800135	     -7.49999987	    -26.87181209	      6.49925674	     -1.77687766	      0.10121207	      0.00176648	     12.18298846	      9.70673320	     -7.49999987	    -38.37932002	      3.26374115	    -12.92749705	     59.03790997	    -19.49984346	     80.81166480	    129.78977296	    103.47722647	     37.80355449	     -6.24364108	     38.34694255	    106.01247070	     99.59887168
      3.38333330	     10.03651540	     10.99000250	      1.15172794	      0.43304674	      0.96051857	     -0.11952789	    -20.14524912	    -20.58691239	    -10.17254823	     10.97741226	      0.19159199	     18.08578881	    -11.20964047	     -7.49999987	    -24.53878430	      7.68967385	     -2.24350207	      0.11653752	      0.00203396	     11.73245233	      8.48632326	     -7.49999987	    -39.23969607	      3.27619150	    -12.60712069	     62.44584861	    -18.80896437	     80.43605599	    128.34923180	    101.79986938	     40.98076455	     -6.90224528	     37.49699020	    105.86647787	     98.07137951
      3.40000000	      7.99668851	     11.70796984	      0.06133919	      0.43325015	      0.95093870	     -0.12229224	    -14.00355694	    -22.68533922	     -8.83872993	     15.89467316	      0.27741438	     19.85187356	    -10.41352135	     -7.49999987	    -21.45106174	      9.26401187	     -2.56113716	      0.13530348	      0.00236149	     10.94172031	      6.40257708	     -7.49999987	    -37.80236188	      2.64057615	    -12.64750073	     63.90355471	    -17.93400642	     79.74175884	    127.81554417	    102.08577432	     42.14193279	     -6.66782627	     33.94060153	    103.80795859	     99.59101689
      3.41666670	      6.30334970	     12.62935273	     -0.72995405	      0.43109966	      0.95011542	     -0.12166973	     -8.86891866	    -24.60755443	     -7.55734355	     19.78882375	      0.34538013	     21.31809931	     -9.35048246	     -7.49999987	    -18.77273361	     10.78670230	     -2.68805162	      0.15581565	      0.00271950	     10.18810966	      4.45225385	     -7.49999987	    -36.11371816	      1.57904561	    -12.85228993	     64.47876415	    -17.16453430	     81.64188227	    129.76539324	    101.42319360	     41.29642993	     -6.89765420	     32.31785671	    104.55322428	     98.48247891
